<svg width="24" height="17" viewBox="0 0 24 17" fill="none" xmlns="http://www.w3.org/2000/svg">
    <path fill-rule="evenodd" clip-rule="evenodd" d="M0 16C0 15.4477 0.447715 15 1 15H23C23.5523 15 24 15.4477 24 16C24 16.5523 23.5523 17 23 17H1C0.447715 17 0 16.5523 0 16Z" fill="white"/>
    <path fill-rule="evenodd" clip-rule="evenodd" d="M0 8C0 7.44772 0.447715 7 1 7H23C23.5523 7 24 7.44772 24 8C24 8.55229 23.5523 9 23 9H1C0.447715 9 0 8.55229 0 8Z" fill="white"/>
    <path fill-rule="evenodd" clip-rule="evenodd" d="M0 1C0 0.447715 0.447715 0 1 0H23C23.5523 0 24 0.447715 24 1C24 1.55228 23.5523 2 23 2H1C0.447715 2 0 1.55228 0 1Z" fill="white"/>
</svg>
